<svg xmlns="http://www.w3.org/2000/svg" width="60" height="60" fill="none"><circle cx="30" cy="30" r="30" fill="#6D8434"/><path fill="#FAFAFA" d="M50.525 39.117 50.09 40.3l-8.051-2.966.436-1.182.665.244.008-.022c-.282-.45-.513-1.174-.185-2.063.545-1.475 2.097-2.144 3.988-1.447 1.892.697 2.637 2.213 2.093 3.687-.329.89-.953 1.299-1.505 1.441l-.008.023 2.995 1.103Zm-6.67-4.248c-.357.968.223 1.86 1.495 2.328 1.283.473 2.292.167 2.65-.8.382-1.037-.36-1.937-1.486-2.352-1.126-.414-2.276-.211-2.658.824ZM47.05 42.242c.206-.28.612-.43.961-.174.349.255.32.68.114.96-.22.3-.61.446-.958.191-.35-.255-.337-.677-.117-.977Zm-.464-1.112-.745 1.016-4.951-3.618.745-1.016 4.95 3.618ZM40.929 43.692c-1.039.514-2.145 1.097-3.077-.031-.75-.907-.438-2.111.711-3.057 1.529-1.258 2.775-1.088 3.647-.127l-.945.778c-.466-.47-1.048-.722-2.049.101-.676.557-.688 1.127-.443 1.422.489.593 1.092.174 1.925-.232.895-.442 2.037-1.133 2.924-.06.642.777.468 1.961-.717 2.937-1.288 1.06-2.473.87-3.218.1l.945-.778c.37.317.87.544 1.629-.082.583-.48.715-.961.44-1.294-.398-.481-.956-.084-1.772.323ZM34.408 47.179c.247.575.866 1.163 1.889.816 1.17-.398 1.329-1.567.957-2.657-.373-1.09-1.202-1.924-2.384-1.522-1.023.347-1.157 1.178-.982 1.841l-1.193.405c-.367-1.37.33-2.71 1.841-3.223 1.739-.59 3.29.277 3.91 2.094.621 1.817-.077 3.448-1.804 4.035-1.512.513-2.83-.117-3.427-1.384l1.193-.405ZM29.262 43.584c1.916.118 2.997 1.518 2.882 3.423-.116 1.904-1.359 3.163-3.275 3.046-1.917-.117-2.998-1.518-2.882-3.423.116-1.904 1.358-3.163 3.275-3.046Zm-.063 1.03c-1.198-.073-1.878.836-1.954 2.093-.077 1.27.489 2.242 1.686 2.316 1.198.073 1.878-.824 1.955-2.093.076-1.258-.49-2.242-1.687-2.315ZM20.195 47.39l-1.134-.55 2.683-5.514 1.133.55-.346.712.021.01c.502-.29 1.284-.444 2.234.017 1.026.498 1.547 1.484.933 2.747l-1.854 3.81-1.144-.556 1.696-3.486c.362-.744.28-1.37-.498-1.748-.874-.424-1.693-.168-2.092.652l-1.632 3.356ZM14.688 43.044c-.76-.85-.869-1.96.178-2.894l3.16-2.821.85.947-2.892 2.581c-.618.552-.78 1.163-.203 1.806.649.724 1.504.797 2.184.19l2.785-2.486.84.939-4.574 4.083-.84-.938.59-.528-.016-.017c-.574.078-1.357-.076-2.062-.862ZM12.09 36.33l.474 1.05 3.031-1.365c.635-.286.573-.627.193-1.35l.941-.424c.159.205.305.442.444.748.415.918.227 1.608-.955 2.14l-3.13 1.41.367.808-.941.424-.366-.81-1.762.794-.524-1.16 1.761-.792-.474-1.05.94-.423ZM8.426 23.714l.274-1.23 8.375 1.863-.273 1.23-.692-.154-.005.024c.34.407.666 1.095.46 2.02-.341 1.534-1.79 2.405-3.757 1.967-1.968-.438-2.91-1.84-2.568-3.374.206-.925.77-1.415 1.297-1.63l.005-.023-3.116-.693Zm7.179 3.318c.224-1.007-.47-1.813-1.793-2.108-1.335-.297-2.294.142-2.518 1.15-.24 1.077.616 1.87 1.788 2.13 1.171.26 2.283-.094 2.523-1.172ZM11.443 20.153c-.167.305-.55.507-.93.301-.38-.206-.408-.63-.241-.936.178-.327.544-.524.924-.318.38.206.424.626.247.953Zm.609 1.04.602-1.107 5.39 2.923-.602 1.107-5.39-2.923ZM17.327 17.876c.963-.645 1.982-1.369 3.055-.372.861.8.71 2.036-.305 3.124-1.35 1.448-2.609 1.442-3.6.603l.836-.895c.524.406 1.134.58 2.018-.368.597-.641.535-1.207.253-1.469-.562-.522-1.105-.028-1.878.483-.83.556-1.87 1.39-2.89.442-.739-.686-.722-1.883.326-3.006 1.138-1.22 2.337-1.186 3.177-.52l-.835.895c-.409-.265-.933-.425-1.604.295-.516.552-.583 1.047-.267 1.34.457.426.959-.042 1.714-.552Z"/><path fill="#FAFAFA" d="M23.244 13.593c-.323-.536-1.016-1.035-1.982-.552-1.106.552-1.105 1.732-.588 2.761.517 1.03 1.452 1.743 2.568 1.186.966-.483.987-1.325.723-1.957l1.128-.564c.549 1.309.04 2.73-1.388 3.443-1.642.82-3.297.171-4.158-1.545-.861-1.716-.39-3.426 1.241-4.241 1.428-.713 2.82-.268 3.583.906l-1.127.563ZM28.822 16.435c-1.915.14-3.174-1.104-3.314-3.007-.14-1.903.923-3.316 2.838-3.455 1.915-.14 3.173 1.104 3.314 3.007.14 1.903-.923 3.316-2.838 3.455Zm-.076-1.029c1.197-.087 1.75-1.078 1.657-2.335-.093-1.268-.785-2.156-1.981-2.069-1.197.087-1.75 1.066-1.657 2.334.092 1.257.784 2.157 1.981 2.07ZM37.349 11.448l1.196.394-1.925 5.822-1.196-.394.248-.752-.022-.008c-.459.354-1.213.611-2.216.28-1.083-.357-1.73-1.266-1.29-2.599l1.33-4.022 1.208.399-1.217 3.68c-.26.786-.095 1.397.726 1.667.923.305 1.7-.058 1.986-.924l1.172-3.543ZM43.393 15.008c.866.742 1.12 1.828.204 2.892l-2.763 3.212-.965-.828 2.527-2.938c.54-.628.62-1.255-.036-1.817-.738-.633-1.595-.593-2.19.098l-2.434 2.83-.956-.82 3.998-4.649.957.82-.517.6.019.016c.559-.153 1.355-.103 2.156.584ZM46.845 21.267l-.611-.976-2.82 1.76c-.591.368-.484.697-.01 1.363l-.875.546a3.652 3.652 0 0 1-.54-.68c-.536-.855-.442-1.564.657-2.25l2.912-1.817-.472-.753.876-.546.471.753 1.64-1.023.675 1.078-1.639 1.022.612.977-.876.546ZM32.918 27.667c-5.25 1.166-6.475 4.765-7.688 7.781l1.102.385.554-1.341c.28.099.572.175.782.175 6.417 0 8.167-9.917 8.167-9.917-.584 1.167-4.667 1.313-7.584 1.896-2.916.583-4.083 3.062-4.083 4.229 0 1.167 1.02 2.188 1.02 2.188 1.897-5.396 7.73-5.396 7.73-5.396Z"/></svg>